<svg xmlns="http://www.w3.org/2000/svg" xmlns:xlink="http://www.w3.org/1999/xlink" viewBox="0,0,256,256" width="64px" height="64px"><g fill="#ffdb6e" fill-rule="nonzero" stroke="none" stroke-width="1" stroke-linecap="butt" stroke-linejoin="miter" stroke-miterlimit="10" stroke-dasharray="" stroke-dashoffset="0" font-family="none" font-weight="none" font-size="none" text-anchor="none" style="mix-blend-mode: normal"><g transform="scale(4,4)"><path d="M36.13477,3.38672c-0.21773,-0.00961 -0.43845,0.00372 -0.6582,0.04297l-29.17187,5.14844c-1.914,0.336 -3.30469,1.9915 -3.30469,3.9375v38.96875c0,1.945 1.39069,3.60345 3.30469,3.93945l29.17578,5.14648c0.172,0.031 0.34844,0.04688 0.52344,0.04688c0.699,0 1.37878,-0.24613 1.92578,-0.70313c0.68,-0.57 1.06836,-1.40987 1.06836,-2.29687v-4.61719h19c1.652,0 3,-1.348 3,-3v-36c0.001,-1.652 -1.34605,-3 -2.99805,-3h-19v-4.61719c0,-0.887 -0.39131,-1.72687 -1.07031,-2.29687c-0.513,-0.4275 -1.14172,-0.67039 -1.79492,-0.69922zM36.10156,5.39063c0.25509,0.02653 0.44006,0.14406 0.53906,0.22656c0.137,0.112 0.35938,0.36263 0.35938,0.76563v51.23438c0,0.402 -0.22347,0.65163 -0.35547,0.76562c-0.133,0.109 -0.41831,0.28875 -0.82031,0.21875l-29.17188,-5.14844c-0.957,-0.168 -1.65234,-0.99575 -1.65234,-1.96875v-38.96875c0,-0.973 0.69534,-1.80075 1.65234,-1.96875l29.17188,-5.14844c0.1005,-0.0165 0.19231,-0.01666 0.27734,-0.00781zM39,13h19c0.551,0 1,0.449 1,1v36c0,0.551 -0.449,1 -1,1h-19v-5.58594l2.29297,2.29297c0.195,0.195 0.45103,0.29297 0.70703,0.29297c0.256,0 0.51203,-0.09797 0.70703,-0.29297l6,-6c0.391,-0.391 0.391,-1.02306 0,-1.41406l-6,-6c-0.391,-0.391 -1.02306,-0.391 -1.41406,0l-2.29297,2.29297v-17.58594h10v8h-5c-0.404,0 -0.76983,0.24319 -0.92383,0.61719c-0.155,0.374 -0.0692,0.80384 0.2168,1.08984l6,6c0.195,0.195 0.45103,0.29297 0.70703,0.29297c0.256,0 0.51203,-0.09797 0.70703,-0.29297l6,-6c0.286,-0.286 0.3718,-0.71584 0.2168,-1.08984c-0.154,-0.374 -0.51983,-0.61719 -0.92383,-0.61719h-5v-9c0,-0.553 -0.447,-1 -1,-1h-11zM16,21c-0.551,0 -1,0.449 -1,1v20c0,0.551 0.449,1 1,1c0.551,0 1,-0.449 1,-1v-7h5c2.762,0 5,-2.238 5,-5v-4c0,-2.762 -2.238,-5 -5,-5zM17,23h5c1.656,0 3,1.344 3,3v4c0,1.656 -1.344,3 -3,3h-5zM46.41406,29h7.17188l-3.58594,3.58594zM42,36.41406l4.58594,4.58594l-4.58594,4.58594l-3,-3v-3.17188z"></path></g></g></svg>